<svg xmlns="http://www.w3.org/2000/svg" width="268" height="36" viewBox="0 0 268 36" fill="none">
  <path d="M13.571 6.43741C11.3427 6.43741 11.3922 8.46767 11.3922 8.96286V9.75516H16.7402V16.1926H11.3922V35.5048H3.51875V16.1926H0.00292969V9.75516H3.51875V8.96286C3.51875 0.990371 9.51049 0 12.6302 0C15.1061 0 17.5325 0.544705 19.3647 1.73315L16.7402 7.13067C15.3042 6.58597 14.7595 6.43741 13.571 6.43741ZM41.6976 9.75516H49.5215V35.5048H41.6976V32.9298C41.3509 33.8212 39.0236 36 35.0621 36C29.1694 36 22.3853 31.7909 22.3853 22.5805C22.3853 13.7166 29.1694 9.30949 35.0621 9.30949C39.0236 9.30949 41.3509 11.5873 41.6976 12.1321V9.75516ZM36.201 29.1169C39.4197 29.1169 42.0442 26.8886 42.0442 22.5805C42.0442 18.4209 39.4197 16.1926 36.201 16.1926C32.8337 16.1926 29.9617 18.4704 29.9617 22.5805C29.9617 26.8391 32.8337 29.1169 36.201 29.1169ZM67.2491 9.30949C71.9534 9.30949 75.9149 11.2902 78.3413 15.4498L72.3991 18.2724C71.1116 17.1829 70.0717 16.1926 67.3482 16.1926C64.3771 16.1926 61.3564 18.4704 61.3564 22.6795C61.3564 26.8391 64.3771 29.0179 67.3482 29.0179C70.0717 29.0179 71.1116 28.1265 72.3991 27.0371L78.4403 29.8597C75.9149 34.0193 72.0524 35.901 67.2491 35.901C61.505 35.901 53.7801 31.7909 53.7801 22.6795C53.7801 13.7166 61.505 9.30949 67.2491 9.30949ZM94.9795 28.9684C96.3661 28.9684 97.3564 28.7703 98.4458 28.4732V34.9601C97.3564 35.4553 95.5738 35.8019 92.9493 35.8019C88.6412 35.8019 85.0263 34.3659 85.0263 26.4429V16.1926H81.4114V9.75516H85.0263V3.71389H92.8502V9.75516H98.3468V16.1926H92.8502V26.4429C92.8502 27.5818 93.1473 28.9684 94.9795 28.9684ZM112.014 35.901C107.211 35.901 102.308 32.6823 102.308 24.5117V9.75516H110.132V23.967C110.132 27.879 111.469 29.1169 113.945 29.1169C117.461 29.1169 119.491 25.7001 119.986 24.2146V9.75516H127.81V35.5048H119.986V31.0481C119.491 32.2861 116.867 35.901 112.014 35.901ZM149.4 9.35901C150.094 9.35901 150.787 9.35901 151.431 9.50757V16.9849C150.836 16.8363 150.143 16.8363 149.648 16.8363C144.894 16.8363 141.081 20.2531 140.685 25.0069V35.5048H132.861V9.75516H140.685V16.044C141.874 12.1816 144.845 9.35901 149.4 9.35901ZM168.217 9.30949C174.061 9.30949 182.231 13.7166 180.597 25.3535H162.622C163.513 28.0275 165.841 29.414 168.96 29.414C172.129 29.414 173.12 28.7208 174.902 27.978L179.211 32.1375C176.933 34.3659 173.863 36 168.663 36C162.275 36 154.649 31.5928 154.649 22.729C154.649 13.7166 162.374 9.30949 168.217 9.30949ZM168.217 15.9945C165.989 15.9945 163.711 17.282 162.721 19.8569H173.665C172.872 17.282 170.446 15.9945 168.217 15.9945ZM203.574 9.75516H211.398V35.5048H203.574V32.9298C203.227 33.8212 200.9 36 196.938 36C191.046 36 184.262 31.7909 184.262 22.5805C184.262 13.7166 191.046 9.30949 196.938 9.30949C200.9 9.30949 203.227 11.5873 203.574 12.1321V9.75516ZM198.077 29.1169C201.296 29.1169 203.92 26.8886 203.92 22.5805C203.92 18.4209 201.296 16.1926 198.077 16.1926C194.71 16.1926 191.838 18.4704 191.838 22.5805C191.838 26.8391 194.71 29.1169 198.077 29.1169ZM220.063 35.7524C217.687 35.7524 215.656 33.7221 215.656 31.3453C215.656 28.9188 217.687 26.8886 220.063 26.8886C222.49 26.8886 224.52 28.9188 224.52 31.3453C224.52 33.7221 222.49 35.7524 220.063 35.7524ZM236.603 0.495186V7.08116H228.779V0.495186H236.603ZM236.603 9.75516V35.5048H228.779V9.75516H236.603ZM254.429 9.30949C260.273 9.30949 267.997 13.7166 267.997 22.729C267.997 31.7909 260.273 36 254.429 36C248.586 36 240.861 31.7909 240.861 22.729C240.861 13.7166 248.586 9.30949 254.429 9.30949ZM254.429 16.1926C251.458 16.1926 248.438 18.4704 248.438 22.729C248.438 26.8391 251.458 29.1169 254.429 29.1169C257.4 29.1169 260.471 26.8391 260.471 22.729C260.471 18.4704 257.4 16.1926 254.429 16.1926Z" fill="#6356E5"/>
</svg>